<?xml version="1.0" encoding="UTF-8"?>
<svg width="25px" height="25px" viewBox="0 0 25 25" version="1.1" xmlns="http://www.w3.org/2000/svg" xmlns:xlink="http://www.w3.org/1999/xlink">
    <!-- Generator: Sketch 51.3 (57544) - http://www.bohemiancoding.com/sketch -->
    <title>Group Copy</title>
    <desc>Created with Sketch.</desc>
    <defs></defs>
    <g id="Page-1" stroke="none" stroke-width="1" fill="none" fill-rule="evenodd">
        <g id="Home-Screen_Default-Copy-6" transform="translate(-52.000000, -28.000000)">
            <g id="Header-_-Line">
                <g id="Group-54" transform="translate(52.000000, 22.000000)">
                    <g id="Group-4">
                        <g id="Group-3">
                            <g id="Group-Copy" transform="translate(0.000000, 6.100000)">
                                <path d="M12.05,0 C5.39507995,0 0,5.3960063 0,12.05 C0,18.70492 5.39507995,24.1 12.05,24.1 C18.70492,24.1 24.1,18.70492 24.1,12.05 C24.1,5.3960063 18.70492,0 12.05,0" id="Fill-1" fill="#982663"></path>
                                <path d="M17.4941767,12.330685 L15.5997847,14.4696341 L12.1667205,18.3973708 C12.0944649,18.4807426 11.9888607,18.5270603 11.8786247,18.5270603 L7.02360855,18.5270603 C6.87539207,18.5270603 6.74014453,18.4427621 6.67715252,18.308441 C6.61508687,18.1750461 6.63824569,18.0184925 6.73551276,17.9073301 L10.9411554,13.0949262 C11.0773293,12.9383725 11.3181811,12.9207718 11.4775138,13.0560194 C11.6377729,13.1921933 11.6544473,13.4293396 11.517347,13.5858933 L7.85547355,17.7767143 L11.703544,17.7767143 L14.2389722,14.8753767 L12.0009033,12.330685 C11.9925661,12.3214214 11.9851553,12.3112315 11.9768181,12.3010417 L6.6086024,6.19730166 C6.51040898,6.0861393 6.48725015,5.92773293 6.55024216,5.79341175 C6.61323416,5.65909056 6.74940806,5.57293973 6.9004036,5.57293973 L7.02360855,5.57293973 L11.8100746,5.57293973 L11.8786247,5.57293973 C11.9888607,5.57293973 12.0944649,5.62111009 12.1667205,5.7035555 L17.4997348,11.8054428 C17.5655058,11.8814038 17.5905174,11.9758918 17.5849593,12.0703798 C17.5877383,12.1630151 17.5608741,12.2565767 17.4941767,12.330685" id="Path" fill="#FFFFFF"></path>
                            </g>
                        </g>
                    </g>
                </g>
            </g>
        </g>
    </g>
</svg>